{"title":"Sci.Fi.Science.Physics.of.The.Impossible.09of12.How.to.Build.a.S","uid":5577714,"size":276479144,"categoryP":"video","categoryS":"tv_shows","magnet":"?xt=urn:btih:6e4c70f0e083170e6940e9754e99e520de8ecbcd&amp;dn=Sci.Fi.Science.Physics.of.The.Impossible.09of12.How.to.Build.a.S&amp;tr=udp%3A%2F%2Ftracker.openbittorrent.com%3A80&amp;tr=udp%3A%2F%2Fopen.demonii.com%3A1337&amp;tr=udp%3A%2F%2Ftracker.coppersurfer.tk%3A6969&amp;tr=udp%3A%2F%2Fexodus.desync.com%3A6969","seeders":0,"leechers":1,"uploader":"itvend","files":1,"time":1274435742,"description":"General\nComplete name                    : Sci.FiSci.Fi.Science.Physics.of.The.Impossible.09of12.How.to.Build.a.Sci.Fi.Robot.HDTV.Xvid.Mp3.avi\nFormat                           : AVI\nFormat/Info                      : Audio Video Interleave\nFile size                        : 264 MiB\nDuration                         : 22mn 1s\nOverall bit rate                 : 1 674 Kbps\nWriting application              : Lavf52.32.0\n\nVideo\nID                               : 0\nFormat                           : MPEG-4 Visual\nFormat profile                   : AdvancedSimple@L5\nFormat settings, BVOP            : Yes\nFormat settings, QPel            : No\nFormat settings, GMC             : No warppoints\nFormat settings, Matrix          : Default (H.263)\nMuxing mode                      : Packed bitstream\nCodec ID                         : XVID\nCodec ID/Hint                    : XviD\nDuration                         : 22mn 1s\nBit rate                         : 1 532 Kbps\nWidth                            : 640 pixels\nHeight                           : 480 pixels\nDisplay aspect ratio             : 4:3\nFrame rate                       : 29.970 fps\nResolution                       : 24 bits\nColorimetry                      : 4:2:0\nScan type                        : Progressive\nBits/(Pixel*Frame)               : 0.166\nStream size                      : 241 MiB (92%)\nWriting library                  : XviD 1.2.1 (UTC 2008-12-04)\n\nAudio\nID                               : 1\nFormat                           : MPEG Audio\nFormat version                   : Version 1\nFormat profile                   : Layer 3\nFormat settings, Mode            : Joint stereo / MS Stereo\nCodec ID                         : 55\nCodec ID/Hint                    : MP3\nDuration                         : 22mn 1s\nBit rate mode                    : Constant\nBit rate                         : 128 Kbps\nChannel(s)                       : 2 channels\nSampling rate                    : 48.0 KHz\nResolution                       : 16 bits\nStream size                      : 20.2 MiB (8%)\nAlignment                        : Aligned on interleaves\nInterleave, duration             : 24 ms (0.72 video frame)\n","torrent":{"xt":"urn:btih:6e4c70f0e083170e6940e9754e99e520de8ecbcd","amp;dn":"Sci.Fi.Science.Physics.of.The.Impossible.09of12.How.to.Build.a.S","amp;tr":["udp%3A%2F%2Ftracker.openbittorrent.com%3A80","udp%3A%2F%2Fopen.demonii.com%3A1337","udp%3A%2F%2Ftracker.coppersurfer.tk%3A6969","udp%3A%2F%2Fexodus.desync.com%3A6969"],"infoHash":"6e4c70f0e083170e6940e9754e99e520de8ecbcd","infoHashBuffer":{"type":"Buffer","data":[110,76,112,240,224,131,23,14,105,64,233,117,78,153,229,32,222,142,203,205]},"announce":[],"urlList":[]}}